<svg width="40" height="40" viewBox="0 0 40 40" fill="none" xmlns="http://www.w3.org/2000/svg">
<path fill-rule="evenodd" clip-rule="evenodd" d="M10.3333 9.88889C10.8856 9.88889 11.3333 9.44117 11.3333 8.88889V8.44444C11.3333 7.6467 11.98 7 12.7778 7C13.5755 7 14.2222 7.6467 14.2222 8.44444V8.88889C14.2222 9.44117 14.6699 9.88889 15.2222 9.88889H17.5556C18.1078 9.88889 18.5556 9.44117 18.5556 8.88889V8.44444C18.5556 7.6467 19.2023 7 20 7C20.7977 7 21.4444 7.6467 21.4444 8.44444V8.88889C21.4444 9.44117 21.8922 9.88889 22.4444 9.88889H24.7778C25.3301 9.88889 25.7778 9.44117 25.7778 8.88889V8.44444C25.7778 7.6467 26.4245 7 27.2222 7C28.02 7 28.6667 7.6467 28.6667 8.44444V8.88889C28.6667 9.44117 29.1144 9.88889 29.6667 9.88889H30.1111C31.7066 9.88889 33 11.1823 33 12.7778V13.5V14.6667C33 15.219 32.5523 15.6667 32 15.6667H8C7.44772 15.6667 7 15.219 7 14.6667V13.5V12.7778C7 11.1823 8.2934 9.88889 9.88889 9.88889H10.3333ZM7 30.1111V19.5556C7 19.0033 7.44772 18.5556 8 18.5556H32C32.5523 18.5556 33 19.0033 33 19.5556V30.1111C33 31.7066 31.7066 33 30.1111 33H9.88889C8.2934 33 7 31.7066 7 30.1111ZM15.6811 21C15.6811 20.4477 15.2334 20 14.6811 20H13.7922C13.2399 20 12.7922 20.4477 12.7922 21V21.8889C12.7922 22.4412 13.2399 22.8889 13.7922 22.8889H14.6811C15.2334 22.8889 15.6811 22.4412 15.6811 21.8889V21ZM18.57 21C18.57 20.4477 19.0177 20 19.57 20H20.4589C21.0112 20 21.4589 20.4477 21.4589 21V21.8889C21.4589 22.4412 21.0112 22.8889 20.4589 22.8889H19.57C19.0177 22.8889 18.57 22.4412 18.57 21.8889V21ZM27.2367 21C27.2367 20.4477 26.789 20 26.2367 20H25.3478C24.7955 20 24.3478 20.4477 24.3478 21V21.8889C24.3478 22.4412 24.7955 22.8889 25.3478 22.8889H26.2367C26.789 22.8889 27.2367 22.4412 27.2367 21.8889V21ZM12.7922 26.7778C12.7922 26.2255 13.2399 25.7778 13.7922 25.7778H14.6811C15.2334 25.7778 15.6811 26.2255 15.6811 26.7778V27.6667C15.6811 28.219 15.2334 28.6667 14.6811 28.6667H13.7922C13.2399 28.6667 12.7922 28.219 12.7922 27.6667V26.7778ZM21.4589 26.7778C21.4589 26.2255 21.0112 25.7778 20.4589 25.7778H19.57C19.0177 25.7778 18.57 26.2255 18.57 26.7778V27.6667C18.57 28.219 19.0177 28.6667 19.57 28.6667H20.4589C21.0112 28.6667 21.4589 28.219 21.4589 27.6667V26.7778ZM24.3478 26.7778C24.3478 26.2255 24.7955 25.7778 25.3478 25.7778H26.2367C26.789 25.7778 27.2367 26.2255 27.2367 26.7778V27.6667C27.2367 28.219 26.789 28.6667 26.2367 28.6667H25.3478C24.7955 28.6667 24.3478 28.219 24.3478 27.6667V26.7778Z" fill="#157AFE"/>
</svg>
