<svg width="40" height="40" viewBox="0 0 40 40" fill="none" xmlns="http://www.w3.org/2000/svg">
<path fill-rule="evenodd" clip-rule="evenodd" d="M13.3333 16.6667V11.6667C13.3333 7.98477 16.318 5 19.9999 5C23.6818 5 26.6666 7.98477 26.6666 11.6667V16.6667H28.3333C30.1742 16.6667 31.6666 18.1591 31.6666 20V31.6667C31.6666 33.5076 30.1742 35 28.3333 35H11.6666C9.82564 35 8.33325 33.5076 8.33325 31.6667V20C8.33325 18.1591 9.82564 16.6667 11.6666 16.6667H13.3333ZM16.6666 11.6667C16.6666 9.82572 18.159 8.33333 19.9999 8.33333C21.8409 8.33333 23.3333 9.82572 23.3333 11.6667V16.6667H16.6666V11.6667ZM19.9999 21.6667C20.9204 21.6667 21.6666 22.4129 21.6666 23.3333V28.3333C21.6666 29.2538 20.9204 30 19.9999 30C19.0794 30 18.3333 29.2538 18.3333 28.3333V23.3333C18.3333 22.4129 19.0794 21.6667 19.9999 21.6667Z" fill="#157AFE"/>
</svg>
