<svg width="40" height="40" viewBox="0 0 40 40" fill="none" xmlns="http://www.w3.org/2000/svg">
<path d="M6.05297 11.2149C6.01822 11.388 6 11.5669 6 11.75V28.25C6 29.7688 7.2536 31 8.8 31H31.2C32.7464 31 34 29.7688 34 28.25V11.75C34 11.5849 33.9852 11.4232 33.9568 11.2662L32.7452 12.1586L21.7009 20.4535C20.6969 21.2075 19.3031 21.2075 18.2991 20.4535L7.2374 12.1456L6.05297 11.2149Z" fill="#157AFE"/>
<path d="M32.1474 9.16142C31.8515 9.05693 31.5325 9 31.2 9H8.8C8.48539 9 8.18289 9.05096 7.90061 9.14494L8.96262 9.97937L20 18.269L31.06 9.96242L32.1474 9.16142Z" fill="#157AFE"/>
</svg>
