<svg width="40" height="40" viewBox="0 0 40 40" fill="none" xmlns="http://www.w3.org/2000/svg">
<path fill-rule="evenodd" clip-rule="evenodd" d="M8.33325 6.66668C8.33325 4.82573 9.82564 3.33334 11.6666 3.33334H28.3333C30.1742 3.33334 31.6666 4.82573 31.6666 6.66668V33.3333C31.6666 35.1743 30.1742 36.6667 28.3333 36.6667H11.6666C9.82564 36.6667 8.33325 35.1743 8.33325 33.3333V6.66668ZM28.3333 26.6667V8.33334H11.6666V26.6667H28.3333ZM19.9999 28.3333C19.0794 28.3333 18.3333 29.0795 18.3333 30C18.3333 30.9205 19.0794 31.6667 19.9999 31.6667H20.0166C20.9371 31.6667 21.6833 30.9205 21.6833 30C21.6833 29.0795 20.9371 28.3333 20.0166 28.3333H19.9999Z" fill="#157AFE"/>
</svg>
