<svg width="110" height="25" viewBox="0 0 110 25" fill="none" xmlns="http://www.w3.org/2000/svg">
<path d="M33.4795 19V8.074H29.2855V6.04H39.8425V8.074H35.6485V19H33.4795ZM44.2591 19.27C43.2751 19.27 42.4111 19.057 41.6671 18.631C40.9231 18.205 40.3411 17.614 39.9211 16.858C39.5071 16.102 39.3001 15.232 39.3001 14.248C39.3001 13.186 39.5041 12.265 39.9121 11.485C40.3201 10.699 40.8871 10.09 41.6131 9.658C42.3391 9.226 43.1791 9.01 44.1331 9.01C45.1411 9.01 45.9961 9.247 46.6981 9.721C47.4061 10.189 47.9311 10.852 48.2731 11.71C48.6151 12.568 48.7441 13.579 48.6601 14.743H46.5091V13.951C46.5031 12.895 46.3171 12.124 45.9511 11.638C45.5851 11.152 45.0091 10.909 44.2231 10.909C43.3351 10.909 42.6751 11.185 42.2431 11.737C41.8111 12.283 41.5951 13.084 41.5951 14.14C41.5951 15.124 41.8111 15.886 42.2431 16.426C42.6751 16.966 43.3051 17.236 44.1331 17.236C44.6671 17.236 45.1261 17.119 45.5101 16.885C45.9001 16.645 46.2001 16.3 46.4101 15.85L48.5521 16.498C48.1801 17.374 47.6041 18.055 46.8241 18.541C46.0501 19.027 45.1951 19.27 44.2591 19.27ZM40.9111 14.743V13.105H47.5981V14.743H40.9111ZM50.8482 19V5.77H53.0172V19H50.8482ZM60.1321 19.27C59.1481 19.27 58.2841 19.057 57.5401 18.631C56.7961 18.205 56.2141 17.614 55.7941 16.858C55.3801 16.102 55.1731 15.232 55.1731 14.248C55.1731 13.186 55.3771 12.265 55.7851 11.485C56.1931 10.699 56.7601 10.09 57.4861 9.658C58.2121 9.226 59.0521 9.01 60.0061 9.01C61.0141 9.01 61.8691 9.247 62.5711 9.721C63.2791 10.189 63.8041 10.852 64.1461 11.71C64.4881 12.568 64.6171 13.579 64.5331 14.743H62.3821V13.951C62.3761 12.895 62.1901 12.124 61.8241 11.638C61.4581 11.152 60.8821 10.909 60.0961 10.909C59.2081 10.909 58.5481 11.185 58.1161 11.737C57.6841 12.283 57.4681 13.084 57.4681 14.14C57.4681 15.124 57.6841 15.886 58.1161 16.426C58.5481 16.966 59.1781 17.236 60.0061 17.236C60.5401 17.236 60.9991 17.119 61.3831 16.885C61.7731 16.645 62.0731 16.3 62.2831 15.85L64.4251 16.498C64.0531 17.374 63.4771 18.055 62.6971 18.541C61.9231 19.027 61.0681 19.27 60.1321 19.27ZM56.7841 14.743V13.105H63.4711V14.743H56.7841ZM70.6273 23.59C70.0873 23.59 69.5683 23.506 69.0703 23.338C68.5783 23.17 68.1343 22.927 67.7383 22.609C67.3423 22.297 67.0183 21.919 66.7663 21.475L68.7643 20.485C68.9503 20.839 69.2113 21.1 69.5473 21.268C69.8893 21.442 70.2523 21.529 70.6363 21.529C71.0863 21.529 71.4883 21.448 71.8423 21.286C72.1963 21.13 72.4693 20.896 72.6613 20.584C72.8593 20.278 72.9523 19.894 72.9403 19.432V16.669H73.2103V9.28H75.1093V19.468C75.1093 19.714 75.0973 19.948 75.0733 20.17C75.0553 20.398 75.0223 20.62 74.9743 20.836C74.8303 21.466 74.5543 21.982 74.1463 22.384C73.7383 22.792 73.2313 23.095 72.6253 23.293C72.0253 23.491 71.3593 23.59 70.6273 23.59ZM70.4383 19.27C69.5443 19.27 68.7643 19.045 68.0983 18.595C67.4323 18.145 66.9163 17.533 66.5503 16.759C66.1843 15.985 66.0013 15.112 66.0013 14.14C66.0013 13.156 66.1843 12.28 66.5503 11.512C66.9223 10.738 67.4473 10.129 68.1253 9.685C68.8033 9.235 69.6013 9.01 70.5193 9.01C71.4433 9.01 72.2173 9.235 72.8413 9.685C73.4713 10.129 73.9483 10.738 74.2723 11.512C74.5963 12.286 74.7583 13.162 74.7583 14.14C74.7583 15.106 74.5963 15.979 74.2723 16.759C73.9483 17.533 73.4653 18.145 72.8233 18.595C72.1813 19.045 71.3863 19.27 70.4383 19.27ZM70.7713 17.326C71.3533 17.326 71.8213 17.194 72.1753 16.93C72.5353 16.66 72.7963 16.285 72.9583 15.805C73.1263 15.325 73.2103 14.77 73.2103 14.14C73.2103 13.504 73.1263 12.949 72.9583 12.475C72.7963 11.995 72.5413 11.623 72.1933 11.359C71.8453 11.089 71.3953 10.954 70.8433 10.954C70.2613 10.954 69.7813 11.098 69.4033 11.386C69.0253 11.668 68.7463 12.052 68.5663 12.538C68.3863 13.018 68.2963 13.552 68.2963 14.14C68.2963 14.734 68.3833 15.274 68.5573 15.76C68.7373 16.24 69.0103 16.621 69.3763 16.903C69.7423 17.185 70.2073 17.326 70.7713 17.326ZM77.633 19V9.28H79.55V11.647L79.316 11.341C79.436 11.017 79.595 10.723 79.793 10.459C79.997 10.189 80.24 9.967 80.522 9.793C80.762 9.631 81.026 9.505 81.314 9.415C81.608 9.319 81.908 9.262 82.214 9.244C82.52 9.22 82.817 9.232 83.105 9.28V11.305C82.817 11.221 82.484 11.194 82.106 11.224C81.734 11.254 81.398 11.359 81.098 11.539C80.798 11.701 80.552 11.908 80.36 12.16C80.174 12.412 80.036 12.7 79.946 13.024C79.856 13.342 79.811 13.687 79.811 14.059V19H77.633ZM87.312 19.27C86.61 19.27 86.016 19.138 85.53 18.874C85.044 18.604 84.675 18.247 84.423 17.803C84.177 17.359 84.054 16.87 84.054 16.336C84.054 15.868 84.132 15.448 84.288 15.076C84.444 14.698 84.684 14.374 85.008 14.104C85.332 13.828 85.752 13.603 86.268 13.429C86.658 13.303 87.114 13.189 87.636 13.087C88.164 12.985 88.734 12.892 89.346 12.808C89.964 12.718 90.609 12.622 91.281 12.52L90.507 12.961C90.513 12.289 90.363 11.794 90.057 11.476C89.751 11.158 89.235 10.999 88.509 10.999C88.071 10.999 87.648 11.101 87.24 11.305C86.832 11.509 86.547 11.86 86.385 12.358L84.405 11.737C84.645 10.915 85.101 10.255 85.773 9.757C86.451 9.259 87.363 9.01 88.509 9.01C89.373 9.01 90.132 9.151 90.786 9.433C91.446 9.715 91.935 10.177 92.253 10.819C92.427 11.161 92.532 11.512 92.568 11.872C92.604 12.226 92.622 12.613 92.622 13.033V19H90.723V16.894L91.038 17.236C90.6 17.938 90.087 18.454 89.499 18.784C88.917 19.108 88.188 19.27 87.312 19.27ZM87.744 17.542C88.236 17.542 88.656 17.455 89.004 17.281C89.352 17.107 89.628 16.894 89.832 16.642C90.042 16.39 90.183 16.153 90.255 15.931C90.369 15.655 90.432 15.34 90.444 14.986C90.462 14.626 90.471 14.335 90.471 14.113L91.137 14.311C90.483 14.413 89.922 14.503 89.454 14.581C88.986 14.659 88.584 14.734 88.248 14.806C87.912 14.872 87.615 14.947 87.357 15.031C87.105 15.121 86.892 15.226 86.718 15.346C86.544 15.466 86.409 15.604 86.313 15.76C86.223 15.916 86.178 16.099 86.178 16.309C86.178 16.549 86.238 16.762 86.358 16.948C86.478 17.128 86.652 17.272 86.88 17.38C87.114 17.488 87.402 17.542 87.744 17.542ZM106.638 19V13.096C106.638 12.43 106.473 11.911 106.143 11.539C105.813 11.161 105.366 10.972 104.802 10.972C104.454 10.972 104.142 11.053 103.866 11.215C103.59 11.371 103.371 11.605 103.209 11.917C103.047 12.223 102.966 12.589 102.966 13.015L102.003 12.448C101.997 11.776 102.147 11.185 102.453 10.675C102.765 10.159 103.185 9.757 103.713 9.469C104.241 9.181 104.829 9.037 105.477 9.037C106.551 9.037 107.373 9.361 107.943 10.009C108.519 10.651 108.807 11.497 108.807 12.547V19H106.638ZM94.9471 19V9.28H96.8641V12.295H97.1341V19H94.9471ZM100.806 19V13.123C100.806 12.445 100.641 11.917 100.311 11.539C99.9811 11.161 99.5311 10.972 98.9611 10.972C98.4091 10.972 97.9651 11.161 97.6291 11.539C97.2991 11.917 97.1341 12.409 97.1341 13.015L96.1621 12.367C96.1621 11.737 96.3181 11.17 96.6301 10.666C96.9421 10.162 97.3621 9.766 97.8901 9.478C98.4241 9.184 99.0211 9.037 99.6811 9.037C100.407 9.037 101.013 9.193 101.499 9.505C101.991 9.811 102.357 10.231 102.597 10.765C102.843 11.293 102.966 11.89 102.966 12.556V19H100.806Z" fill="black"/>
<g clip-path="url(#clip0_433_6)">
<path d="M11 24C17.0751 24 22 19.0751 22 13C22 6.92487 17.0751 2 11 2C4.92487 2 0 6.92487 0 13C0 19.0751 4.92487 24 11 24Z" fill="url(#paint0_linear_433_6)"/>
<path fill-rule="evenodd" clip-rule="evenodd" d="M4.97918 12.8839C8.18591 11.4868 10.3242 10.5657 11.3941 10.1207C14.449 8.85009 15.0837 8.62938 15.4974 8.62209C15.5884 8.62048 15.7919 8.64304 15.9237 8.74998C16.035 8.84028 16.0656 8.96226 16.0803 9.04787C16.0949 9.13348 16.1132 9.32851 16.0986 9.4809C15.9331 11.2203 15.2168 15.4412 14.8524 17.3893C14.6982 18.2137 14.3946 18.4901 14.1007 18.5171C13.4619 18.5759 12.9768 18.0949 12.3581 17.6894C11.39 17.0548 10.843 16.6597 9.90326 16.0404C8.81722 15.3247 9.52125 14.9314 10.1402 14.2885C10.3022 14.1203 13.1167 11.5603 13.1712 11.328C13.178 11.299 13.1843 11.1907 13.12 11.1335C13.0557 11.0764 12.9607 11.0959 12.8922 11.1115C12.7951 11.1335 11.2485 12.1558 8.25237 14.1782C7.81337 14.4797 7.41573 14.6266 7.05946 14.6189C6.66671 14.6104 5.9112 14.3968 5.34956 14.2142C4.66068 13.9903 4.11318 13.8719 4.16085 13.4916C4.18569 13.2935 4.45846 13.091 4.97918 12.8839Z" fill="white"/>
</g>
<defs>
<linearGradient id="paint0_linear_433_6" x1="1100" y1="2" x2="1100" y2="2185.68" gradientUnits="userSpaceOnUse">
<stop stop-color="#2AABEE"/>
<stop offset="1" stop-color="#229ED9"/>
</linearGradient>
<clipPath id="clip0_433_6">
<rect width="22" height="22" fill="white" transform="translate(0 2)"/>
</clipPath>
</defs>
</svg>
