<svg width="125" height="22" viewBox="0 0 125 22" fill="none" xmlns="http://www.w3.org/2000/svg">
<g clip-path="url(#clip0_48_248)">
<mask id="mask0_48_248" style="mask-type:luminance" maskUnits="userSpaceOnUse" x="0" y="0" width="125" height="22">
<path d="M124.891 0H0.108643V22H124.891V0Z" fill="white"/>
</mask>
<g mask="url(#mask0_48_248)">
<path d="M37.896 13.6492C37.896 15.3194 36.3595 16.5288 34.1969 16.5288H29.1321V6.16229H34.0262C36.1319 6.16229 37.6114 7.31412 37.6114 8.9267C37.6114 10.0209 37.0423 10.712 36.1888 11.1152C37.0993 11.4607 37.896 12.3822 37.896 13.6492ZM31.3514 8.06283V10.3089H33.9693C34.766 10.3089 35.2782 9.84815 35.2782 9.21466C35.2782 8.58115 34.709 8.06283 33.9693 8.06283H31.3514ZM34.1969 14.6283C35.0506 14.6283 35.6766 14.1099 35.6766 13.3612C35.6766 12.6126 35.1075 12.0942 34.1969 12.0942H31.3514V14.6283H34.1969Z" fill="black"/>
<path d="M46.2616 16.4712L42.7334 12.3822H42.1642V16.4712H39.8877V6.16229H42.1642V10.1361H42.7334L46.1477 6.16229H48.8225L44.5542 11.1152L49.2207 16.4712H46.2616Z" fill="black"/>
<path d="M49.2209 11.3456C49.2209 8.23565 51.4972 5.98956 54.684 5.98956C57.8709 5.98956 60.1473 8.23565 60.1473 11.3456C60.1473 14.4555 57.8709 16.7016 54.684 16.7016C51.4972 16.7016 49.2209 14.4555 49.2209 11.3456ZM57.7572 11.3456C57.7572 9.38749 56.5051 8.06286 54.684 8.06286C52.8629 8.06286 51.6109 9.38749 51.6109 11.3456C51.6109 13.3037 52.8629 14.6283 54.684 14.6283C56.5051 14.6283 57.7572 13.3037 57.7572 11.3456Z" fill="black"/>
<path d="M68.8545 6.16229H71.1308V16.4712H68.8545V12.3246H64.3017V16.4712H62.0254V6.16229H64.3017V10.2513H68.8545V6.16229Z" fill="black"/>
<path d="M76.0251 16.4712V8.23559H72.4966V6.16229H81.7729V8.23559H78.2444V16.4712H76.0251Z" fill="black"/>
<path d="M91.5609 10.7121V16.4712H89.9105L89.4553 14.8587C88.9431 15.7226 87.8618 16.7016 86.2114 16.7016C84.1627 16.7016 82.6831 15.3194 82.6831 13.4189C82.6831 11.5184 84.1627 10.1938 87.179 10.1938H89.3983C89.2846 8.86914 88.6016 7.9477 87.3496 7.9477C86.3253 7.9477 85.6425 8.52361 85.3009 9.1571L83.2522 8.81157C83.7644 7.02623 85.5285 5.98956 87.4635 5.98956C89.9675 5.98956 91.5609 7.71731 91.5609 10.7121ZM89.3414 11.9791H87.2357C85.5285 11.9791 84.9594 12.555 84.9594 13.3037C84.9594 14.1676 85.6425 14.7435 86.7805 14.7435C88.2603 14.7435 89.3414 13.6493 89.3414 11.9791Z" fill="black"/>
<path d="M100.325 16.4712L96.7966 12.3822H96.2275V16.4712H93.9512V6.16229H96.2275V10.1361H96.7966L100.211 6.16229H102.886L98.6177 11.1152L103.284 16.4712H100.325Z" fill="black"/>
<path d="M107.382 16.4712V8.23559H103.853V6.16229H113.13V8.23559H109.601V16.4712H107.382Z" fill="black"/>
<path d="M124.511 11.9791H116.316C116.544 13.5917 117.682 14.6283 119.389 14.6283C120.584 14.6283 121.495 14.11 122.007 13.3613L124.113 13.7069C123.373 15.665 121.381 16.7016 119.219 16.7016C116.146 16.7016 113.926 14.4555 113.926 11.3456C113.926 8.23565 116.146 5.98956 119.219 5.98956C122.292 5.98956 124.511 8.23565 124.511 11.2304C124.568 11.5184 124.511 11.7487 124.511 11.9791ZM116.487 10.1938H122.121C121.723 8.92674 120.698 8.00527 119.276 8.00527C117.91 7.9477 116.828 8.86914 116.487 10.1938Z" fill="black"/>
<path d="M0.108643 10.56C0.108643 5.58197 0.108643 3.09296 1.63678 1.54648C3.16493 0 5.62443 0 10.5434 0H11.413C16.332 0 18.7915 0 20.3196 1.54648C21.8478 3.09296 21.8478 5.58197 21.8478 10.56V11.44C21.8478 16.418 21.8478 18.907 20.3196 20.4535C18.7915 22 16.332 22 11.413 22H10.5434C5.62443 22 3.16493 22 1.63678 20.4535C0.108643 18.907 0.108643 16.418 0.108643 11.44V10.56Z" fill="#0077FF"/>
<path d="M11.6756 15.8492C6.7209 15.8492 3.89484 12.4117 3.7771 6.69171H6.25897C6.34049 10.89 8.17016 12.6684 9.61943 13.035V6.69171H11.9565V10.3125C13.3876 10.1567 14.8911 8.50671 15.3983 6.69171H17.7353C17.3458 8.92839 15.7154 10.5784 14.556 11.2567C15.7154 11.8067 17.5724 13.2459 18.2789 15.8492H15.7064C15.1538 14.1075 13.7771 12.76 11.9565 12.5767V15.8492H11.6756Z" fill="white"/>
</g>
</g>
<defs>
<clipPath id="clip0_48_248">
<rect width="125" height="22" rx="6" fill="white"/>
</clipPath>
</defs>
</svg>
