<svg width="128" height="128" viewBox="0 0 128 128" fill="none" xmlns="http://www.w3.org/2000/svg">
<path d="M70.7327 117C64.95 117 60.3577 113.026 59.5317 107.276L47.3387 21.9692C47.294 21.6572 47.1995 21.0005 46.2175 21C46.217 21 46.2163 21 46.2158 21C45.235 21 45.14 21.656 45.0942 21.9713L36.4103 82.854C35.6208 88.2897 31.247 92.2465 25.7725 92.4887C20.2972 92.7305 15.592 89.1757 14.3285 83.8435C14.3237 83.8242 14.3195 83.8053 14.3153 83.786L11.5118 71.2992C10.75 68.1337 7.95475 65.75 5 65.75C2.2385 65.75 0 63.5115 0 60.75C0 57.9885 2.2385 55.75 5 55.75C12.593 55.75 19.4262 61.3303 21.2482 69.0185C21.253 69.0378 21.2572 69.0567 21.2615 69.076L24.0655 81.5648C24.136 81.8578 24.3315 82.5408 25.3305 82.4983C26.3637 82.4525 26.4715 81.709 26.5123 81.429L35.1963 20.5462C36.0138 14.9192 40.544 11 46.2158 11H46.2255C51.9022 11.0045 56.4305 14.932 57.2378 20.551L69.4305 105.857C69.4757 106.172 69.6075 107.024 70.7728 107C71.9483 106.982 72.0442 106.134 72.0805 105.814L73.7812 90.6913C74.0897 87.947 76.5647 85.972 79.3087 86.2815C82.053 86.59 84.0272 89.0647 83.7185 91.809L82.0173 106.935C81.3568 112.773 76.7947 116.91 70.923 116.999C70.8595 116.999 70.796 117 70.7327 117ZM113.046 80.0918C113.051 80.072 113.056 80.0523 113.061 80.0325L114.826 72.5407C115.801 68.6675 119.311 65.75 123 65.75C125.761 65.75 128 63.5115 128 60.75C128 57.9885 125.761 55.75 123 55.75C114.712 55.75 107.19 61.8078 105.115 70.1543C105.11 70.174 105.105 70.194 105.1 70.2138L103.334 77.7073C103.275 77.9428 103.169 78.2705 102.582 78.249C101.971 78.225 101.91 77.8617 101.872 77.6345L97.9485 53.698C97.0965 48.587 92.886 45.1095 87.704 45.2482C82.5243 45.3842 78.4998 49.0752 77.9173 54.224L75.8 72.9378C75.4895 75.6818 77.4623 78.1577 80.2063 78.4682C82.951 78.779 85.4262 76.806 85.7367 74.062L87.854 55.3483C87.8585 55.3103 87.8635 55.2798 87.8685 55.256C87.9277 55.2428 88.0065 55.2405 88.066 55.2508C88.0715 55.2715 88.0775 55.2975 88.0827 55.3288L92.0068 79.2653C92.8538 84.348 97.0415 88.039 102.19 88.2412C102.338 88.247 102.485 88.25 102.631 88.25C107.592 88.25 111.838 84.949 113.046 80.0918Z" fill="black"/>
</svg>
