<svg width="128" height="126" viewBox="0 0 128 126" fill="none" xmlns="http://www.w3.org/2000/svg">
<path d="M33.7561 37.0201C36.2905 31.4114 38.5148 24.8384 44.0639 21.4245C70.2118 5.33724 97.2838 30.4995 93.3107 57.8765C91.0111 73.7217 74.0851 82.198 67.351 95.4557C61.5791 106.819 38.8281 117.466 37.0012 101.281" stroke="black" stroke-opacity="0.9" stroke-width="6" stroke-linecap="round" stroke-linejoin="round"/>
<path d="M73.4602 75.1628C86.9703 61.0581 83.5636 27.9415 61.2436 28.9403C44.4465 29.6919 48.3639 51.8733 52.2724 59.5675" stroke="black" stroke-opacity="0.9" stroke-width="6" stroke-linecap="round" stroke-linejoin="round"/>
<path d="M48.8714 48.8575C66.7655 47.6349 72.8506 66.1787 61.2423 77.6059C58.2183 80.5821 52.3741 76.2574 48.8714 77.9814C45.3677 79.706 42.7437 85.141 39.2913 81.1758" stroke="black" stroke-opacity="0.9" stroke-width="6" stroke-linecap="round" stroke-linejoin="round"/>
</svg>
