<svg width="128" height="128" viewBox="0 0 128 128" fill="none" xmlns="http://www.w3.org/2000/svg">
<g clip-path="url(#clip0_276_23)">
<path d="M77.1627 0C77.121 0 77.078 0 77.0362 0.0005C71.2937 0.0475 66.915 3.11175 63.9902 6.9045C61.458 3.47175 57.3655 0.05175 51.098 0.0005C51.0547 0 51.0117 0 50.9682 0C41.7342 0 34.3622 8.0545 33.9975 17.0327C33.5437 28.1787 42.483 35.7303 54.8557 46.1818C61.0985 51.4548 61.8932 52.2002 63.9425 53.9622C66.5755 51.6985 66.4932 51.7028 73.0297 46.1813C85.402 35.73 94.3412 28.1787 93.8875 17.0327C93.504 7.61275 86.0147 0 77.1627 0ZM68.1897 40.452C66.8102 41.6172 65.401 42.8078 63.9425 44.0537C62.4842 42.8083 61.0747 41.6175 59.6957 40.4525C48.1537 30.7025 41.187 24.8175 41.4915 17.338C41.705 12.08 46.128 7.5 50.9737 7.5C50.9945 7.5 51.016 7.5 51.0367 7.50025C56.87 7.548 59.5055 13.6645 60.1742 15.538L61.0627 18H66.8215L67.7102 15.5385C68.0022 14.7212 70.745 7.5525 77.098 7.50025C77.1192 7.50025 77.1397 7.5 77.1607 7.5C81.9547 7.5 86.176 11.9895 86.3937 17.3377C86.698 24.8175 79.7315 30.7022 68.1897 40.452Z" fill="black"/>
<path d="M116.75 22.75C110.547 22.75 105.5 27.7968 105.5 34V56.499C105.5 57.4987 105.111 58.439 104.405 59.1468C103.861 58.0105 103.122 56.963 102.204 56.0457C97.8182 51.6595 90.6812 51.66 86.312 56.0295L65.7418 76.3495C65.1085 76.9828 64.5285 77.6547 63.999 78.3575C63.4658 77.6493 62.881 76.972 62.242 76.3333L41.7045 56.0457C37.3182 51.6595 30.182 51.6595 25.7957 56.0457C24.8783 56.963 24.139 58.0105 23.5947 59.1468C22.8888 58.4388 22.5 57.4987 22.5 56.499V34C22.5 27.7968 17.4533 22.75 11.25 22.75C5.04675 22.75 0 27.7968 0 34V67.3453C0 73.0793 2.82975 77.2143 2.895 77.3635L32.3478 107.715C33.2665 109.379 33.75 111.25 33.75 113.155V128H94.25V113.155C94.25 111.25 94.7337 109.379 95.6523 107.715L125.105 77.3635C125.214 77.1153 128 73.2575 128 67.3453V34C128 27.7968 122.953 22.75 116.75 22.75ZM60.25 120.5H41.25V113.155C41.25 107.421 38.4202 103.286 38.355 103.136L8.90225 72.7845C7.98375 71.1215 7.5 69.2498 7.5 67.3453V34C7.5 31.9323 9.18225 30.25 11.25 30.25C13.3177 30.25 15 31.9323 15 34V56.499C15 59.504 16.1702 62.329 18.2952 64.4538L38.5985 84.757L43.9017 79.4538L31.0845 66.6363C29.6342 65.1708 29.6358 62.8123 31.099 61.3488C32.5243 59.9238 34.8885 59.8365 36.4175 61.365L56.955 81.6525C59.0798 83.7775 60.25 86.6025 60.25 89.6075V120.5ZM120.5 67.3453C120.5 69.2498 120.016 71.1215 119.098 72.7845L89.645 103.136L89.422 103.508C87.674 106.421 86.75 109.757 86.75 113.155V120.5H67.75V89.6077C67.75 86.6027 68.9202 83.7775 71.0287 81.669L91.5987 61.349C93.0652 59.8827 95.4345 59.8827 96.901 61.349C98.3645 62.813 98.3652 65.1715 96.9155 66.6365L84.0983 79.454L89.4015 84.7572C90.5727 83.5857 108.542 65.6168 109.705 64.454C111.83 62.329 113 59.504 113 56.4992V34C113 31.9323 114.682 30.25 116.75 30.25C118.818 30.25 120.5 31.9323 120.5 34V67.3453Z" fill="black"/>
</g>
<defs>
<clipPath id="clip0_276_23">
<rect width="128" height="128" fill="white"/>
</clipPath>
</defs>
</svg>
