<svg width="212" height="75" viewBox="0 0 212 75" fill="none" xmlns="http://www.w3.org/2000/svg">
<path d="M36.9568 46.7106C41.9699 46.7106 46.0339 42.5869 46.0339 37.5001C46.0339 32.4132 41.9699 28.2896 36.9568 28.2896C31.9436 28.2896 27.8797 32.4132 27.8797 37.5001C27.8797 42.5869 31.9436 46.7106 36.9568 46.7106Z" fill="#157AFE"/>
<path d="M39.2452 15.1971C39.4274 13.4204 41.0023 12.1098 42.7164 12.5167C46.2797 13.3625 49.6326 14.9862 52.535 17.2897C56.2775 20.2599 59.1194 24.24 60.7357 28.7737C62.3515 33.3074 62.6758 38.2114 61.6714 42.9236C60.6675 47.6358 58.3751 51.9655 55.0571 55.4166C51.7393 58.8675 47.5305 61.3007 42.9129 62.4361C38.2953 63.5716 33.4558 63.364 28.9491 61.8373C24.4423 60.3106 20.4507 57.5263 17.4316 53.8036C15.0902 50.9165 13.4073 47.5557 12.4856 43.9621C12.0422 42.2335 13.2945 40.6034 15.0403 40.3744C16.7862 40.1454 18.3586 41.4095 18.8739 43.1175C19.5956 45.5096 20.7745 47.7456 22.3541 49.6933C24.612 52.4775 27.5973 54.5599 30.9679 55.7017C34.3384 56.8436 37.9578 56.9987 41.4113 56.1494C44.8648 55.3001 48.0125 53.4807 50.4938 50.8997C52.9751 48.3186 54.6896 45.0805 55.4407 41.5562C56.1919 38.0321 55.9492 34.3644 54.7407 30.9737C53.5321 27.5829 51.4066 24.6064 48.6075 22.385C46.6495 20.831 44.4173 19.6905 42.0427 19.0178C40.3472 18.5374 39.0628 16.9737 39.2452 15.1971Z" fill="#157AFE"/>
<path d="M40.4933 3.032C40.6537 1.46877 42.0357 0.32248 43.5597 0.603232C52.009 2.15976 59.6935 6.66266 65.2547 13.38C71.4188 20.8263 74.4916 30.4112 73.8236 40.1124C73.156 49.8135 68.8003 58.872 61.676 65.3767C55.2489 71.2447 47.0221 74.6197 38.4416 74.9697C36.8939 75.0331 35.6823 73.7028 35.7376 72.1319C35.7929 70.5616 37.0948 69.347 38.6415 69.2627C45.7659 68.8738 52.5789 66.0261 57.9241 61.1459C63.9673 55.6284 67.6618 47.9446 68.2285 39.7159C68.7946 31.4871 66.1887 23.3569 60.9597 17.0408C56.3347 11.4541 49.9778 7.67312 42.9759 6.28324C41.4558 5.98155 40.3329 4.59523 40.4933 3.032Z" fill="#157AFE"/>
<path d="M96.1449 24.4186H92.0195V17.7907H86.2897V24.4186H82.1643V8.13958H86.2897V14.5349H92.0195V8.13958H96.1449V24.4186ZM111.626 24.4186H98.906V8.13958H111.626V11.3954H103.031V14.5349H109.793V17.7907H103.031V21.1628H111.626V24.4186ZM123.309 24.4186V14.4186L117.808 24.4186H113.454V8.13958H117.579V18.1396L123.08 8.13958H127.434V24.4186H123.309ZM119.184 6.97679C117.198 6.97679 116.204 5.96906 116.204 3.95353V3.25586H119.184V3.83725C119.184 4.06981 119.26 4.26361 119.413 4.41865C119.566 4.57369 119.757 4.65121 119.986 4.65121H120.673C120.902 4.65121 121.094 4.57369 121.246 4.41865C121.399 4.26361 121.475 4.06981 121.475 3.83725V3.25586H124.455V3.95353C124.455 5.96906 123.462 6.97679 121.475 6.97679H119.184ZM130.195 8.13958H139.821C141.426 8.13958 142.587 8.51167 143.305 9.25586C144.039 9.98452 144.405 11.1628 144.405 12.7907V15.1163C144.405 16.7442 144.039 17.9303 143.305 18.6745C142.587 19.4031 141.426 19.7675 139.821 19.7675H134.321V24.4186H130.195V8.13958ZM140.28 12.7907C140.28 11.8605 139.821 11.3954 138.905 11.3954H134.321V16.5117H138.905C139.821 16.5117 140.28 16.0466 140.28 15.1163V12.7907ZM156.781 12.5582C156.781 11.628 156.322 11.1628 155.406 11.1628H151.51C150.593 11.1628 150.134 11.628 150.134 12.5582V20C150.134 20.9303 150.593 21.3954 151.51 21.3954H155.406C156.322 21.3954 156.781 20.9303 156.781 20V12.5582ZM160.906 20C160.906 21.628 160.54 22.814 159.806 23.5582C159.088 24.2868 157.927 24.6512 156.322 24.6512H150.593C148.988 24.6512 147.82 24.2868 147.086 23.5582C146.368 22.814 146.009 21.628 146.009 20V12.5582C146.009 10.9303 146.368 9.75196 147.086 9.0233C147.82 8.27912 148.988 7.90702 150.593 7.90702H156.322C157.927 7.90702 159.088 8.27912 159.806 9.0233C160.54 9.75196 160.906 10.9303 160.906 12.5582V20ZM162.521 17.907V14.6512H171.918V17.907H162.521ZM89.9568 43.0233H85.8313V30H81.0184V26.7442H94.7697V30H89.9568V43.0233ZM110.357 43.0233H106.232V33.0233L100.732 43.0233H96.3769V26.7442H100.502V36.7442L106.003 26.7442H110.357V43.0233ZM127.099 43.0233H122.973V36.3954H117.243V43.0233H113.118V26.7442H117.243V33.1396H122.973V26.7442H127.099V43.0233ZM143.84 43.0233H139.715V36.3954H133.985V43.0233H129.86V26.7442H133.985V33.1396H139.715V26.7442H143.84V43.0233ZM160.582 43.0233H156.457V33.0233L150.956 43.0233H146.601V26.7442H150.727V36.7442L156.227 26.7442H160.582V43.0233ZM171.136 43.0233H167.01V30H162.197V26.7442H175.949V30H171.136V43.0233ZM181.406 43.2559C180.642 43.2559 179.855 43.1784 179.045 43.0233V39.8838H181.108C181.551 39.8838 181.856 39.7055 182.024 39.3489C182.101 39.1938 182.139 39.031 182.139 38.8605C182.139 38.6745 182.101 38.5117 182.024 38.3721L175.722 26.7442H180.305L184.431 35L187.869 26.7442H192.452L186.608 39.5349C186.074 40.7598 185.432 41.6745 184.683 42.2791C183.858 42.9303 182.766 43.2559 181.406 43.2559ZM205.308 42.7907C201.901 43.1008 199.074 43.2559 196.828 43.2559C195.33 43.2559 194.23 42.8993 193.527 42.1861C192.825 41.4729 192.473 40.3566 192.473 38.8373V31.3954C192.473 29.7675 192.832 28.5892 193.55 27.8605C194.284 27.1163 195.453 26.7442 197.057 26.7442H205.308V30H197.974C197.057 30 196.598 30.4652 196.598 31.3954V38.8373C196.598 39.1938 196.698 39.4807 196.896 39.6977C197.111 39.8993 197.378 40 197.699 40C198.019 40 198.371 40 198.753 40C199.135 39.9845 199.532 39.9691 199.945 39.9535C200.357 39.938 200.77 39.9225 201.182 39.907C201.61 39.8915 202.153 39.8605 202.81 39.814C203.482 39.7675 204.315 39.7132 205.308 39.6512V42.7907Z" fill="#157AFE"/>
<path d="M81.4309 56.9769V50.2792H82.1735L84.6671 55.6141L87.1469 50.2792H87.8986V56.9722H87.124V52.0978L84.8825 56.9769H84.4471L82.2056 52.0978V56.9769H81.4309ZM90.2152 56.9769L91.0036 55.3164L88.6796 50.2792H89.5918L91.4299 54.4327L93.3092 50.2792H94.1801L91.0998 56.9769H90.2152ZM93.8375 56.9769V56.2559C93.9997 56.2715 94.1337 56.2637 94.2409 56.2327C94.348 56.2017 94.4351 56.135 94.5022 56.0327C94.5726 55.9303 94.6334 55.7815 94.6855 55.5862C94.7376 55.3877 94.7881 55.1303 94.8368 54.8141C94.9009 54.442 94.9542 54.0668 94.9972 53.6885C95.0402 53.3071 95.0768 52.9257 95.1072 52.5443C95.141 52.1598 95.1685 51.7784 95.1897 51.4001C95.2109 51.0187 95.2293 50.6451 95.2447 50.2792H99.4939V56.9769H98.678V51.0652H96.0194C96.001 51.3474 95.981 51.6497 95.9598 51.9722C95.9415 52.2916 95.9168 52.6249 95.8865 52.9722C95.8561 53.3195 95.8194 53.6776 95.7764 54.0466C95.7335 54.4156 95.6802 54.7908 95.616 55.1722C95.5639 55.4792 95.5014 55.7598 95.4281 56.0141C95.3576 56.2683 95.2585 56.4808 95.1301 56.6513C95.0047 56.8218 94.8385 56.9381 94.6305 57.0001C94.4259 57.0622 94.1612 57.0544 93.8375 56.9769ZM100.773 56.9769V50.2792H101.589V52.7536H103.382C103.446 52.7536 103.522 52.7567 103.611 52.7629C103.699 52.766 103.785 52.7753 103.867 52.7908C104.221 52.8466 104.519 52.9706 104.761 53.1629C105.005 53.3552 105.189 53.5985 105.311 53.8931C105.436 54.1846 105.499 54.5087 105.499 54.8652C105.499 55.2187 105.438 55.5427 105.316 55.8373C105.193 56.1288 105.01 56.3722 104.766 56.5676C104.524 56.7598 104.225 56.8838 103.867 56.9396C103.785 56.952 103.699 56.9613 103.611 56.9676C103.522 56.9738 103.446 56.9769 103.382 56.9769H100.773ZM101.589 56.1908H103.354C103.412 56.1908 103.478 56.1877 103.551 56.1815C103.627 56.1753 103.699 56.1645 103.767 56.1489C103.977 56.0994 104.148 56.0094 104.28 55.8792C104.414 55.7459 104.512 55.5908 104.573 55.4141C104.634 55.2342 104.665 55.0513 104.665 54.8652C104.665 54.6792 104.634 54.4978 104.573 54.321C104.512 54.1412 104.414 53.9846 104.28 53.8513C104.148 53.718 103.977 53.628 103.767 53.5815C103.699 53.5629 103.627 53.552 103.551 53.5489C103.478 53.5427 103.412 53.5396 103.354 53.5396H101.589V56.1908ZM108.029 56.9769V51.0652H105.778V50.2792H111.095V51.0652H108.845V56.9769H108.029ZM116.918 56.9769H116.093V51.7396L112.65 56.9769H111.825V50.2792H112.65V55.5117L116.093 50.2792H116.918V56.9769ZM120.913 57.1164C120.256 57.1164 119.699 56.9691 119.24 56.6745C118.782 56.3799 118.432 55.9706 118.191 55.4466C117.952 54.9226 117.833 54.3164 117.833 53.628C117.833 52.9396 117.952 52.3334 118.191 51.8094C118.432 51.2854 118.782 50.8761 119.24 50.5815C119.699 50.2869 120.256 50.1396 120.913 50.1396C121.677 50.1396 122.305 50.3366 122.797 50.7303C123.292 51.1241 123.633 51.6544 123.819 52.321L122.99 52.5443C122.855 52.0451 122.616 51.6513 122.27 51.3629C121.925 51.0745 121.473 50.9303 120.913 50.9303C120.421 50.9303 120.012 51.0435 119.685 51.2699C119.358 51.4962 119.112 51.8125 118.947 52.2187C118.782 52.6218 118.698 53.0916 118.695 53.628C118.692 54.1613 118.773 54.6311 118.938 55.0373C119.103 55.4404 119.35 55.7567 119.68 55.9862C120.01 56.2125 120.421 56.3257 120.913 56.3257C121.473 56.3257 121.925 56.1815 122.27 55.8931C122.616 55.6017 122.855 55.2078 122.99 54.7117L123.819 54.935C123.633 55.5985 123.292 56.1288 122.797 56.5257C122.305 56.9195 121.677 57.1164 120.913 57.1164ZM124.824 56.9769V50.2792H128.996V51.0652H125.64V53.1629H128.446V53.949H125.64V56.1908H128.996V56.9769H124.824ZM130.098 56.9769V50.2792H130.914V53.2327H134.389V50.2792H135.204V56.9769H134.389V54.0187H130.914V56.9769H130.098ZM139.204 57.1164C138.547 57.1164 137.989 56.9691 137.531 56.6745C137.072 56.3799 136.722 55.9706 136.481 55.4466C136.243 54.9226 136.123 54.3164 136.123 53.628C136.123 52.9396 136.243 52.3334 136.481 51.8094C136.722 51.2854 137.072 50.8761 137.531 50.5815C137.989 50.2869 138.547 50.1396 139.204 50.1396C139.968 50.1396 140.596 50.3366 141.088 50.7303C141.583 51.1241 141.923 51.6544 142.11 52.321L141.28 52.5443C141.146 52.0451 140.906 51.6513 140.561 51.3629C140.215 51.0745 139.763 50.9303 139.204 50.9303C138.712 50.9303 138.302 51.0435 137.975 51.2699C137.648 51.4962 137.402 51.8125 137.237 52.2187C137.072 52.6218 136.988 53.0916 136.985 53.628C136.982 54.1613 137.063 54.6311 137.228 55.0373C137.393 55.4404 137.641 55.7567 137.971 55.9862C138.301 56.2125 138.712 56.3257 139.204 56.3257C139.763 56.3257 140.215 56.1815 140.561 55.8931C140.906 55.6017 141.146 55.2078 141.28 54.7117L142.11 54.935C141.923 55.5985 141.583 56.1288 141.088 56.5257C140.596 56.9195 139.968 57.1164 139.204 57.1164ZM145.828 57.1164C145.172 57.1164 144.614 56.9691 144.155 56.6745C143.697 56.3799 143.348 55.9706 143.106 55.4466C142.867 54.9226 142.748 54.3164 142.748 53.628C142.748 52.9396 142.867 52.3334 143.106 51.8094C143.348 51.2854 143.697 50.8761 144.155 50.5815C144.614 50.2869 145.172 50.1396 145.828 50.1396C146.489 50.1396 147.048 50.2869 147.506 50.5815C147.965 50.8761 148.313 51.2854 148.551 51.8094C148.79 52.3334 148.909 52.9396 148.909 53.628C148.909 54.3164 148.79 54.9226 148.551 55.4466C148.313 55.9706 147.965 56.3799 147.506 56.6745C147.048 56.9691 146.489 57.1164 145.828 57.1164ZM145.828 56.3257C146.321 56.3288 146.73 56.2171 147.057 55.9908C147.387 55.7613 147.633 55.4435 147.795 55.0373C147.96 54.6311 148.042 54.1613 148.042 53.628C148.042 53.0916 147.96 52.6218 147.795 52.2187C147.633 51.8156 147.387 51.5009 147.057 51.2745C146.73 51.0482 146.321 50.9334 145.828 50.9303C145.337 50.9273 144.927 51.0389 144.6 51.2652C144.276 51.4916 144.032 51.8078 143.867 52.2141C143.702 52.6203 143.618 53.0916 143.615 53.628C143.612 54.1613 143.692 54.6296 143.857 55.0327C144.022 55.4358 144.269 55.752 144.595 55.9815C144.925 56.2078 145.337 56.3226 145.828 56.3257ZM149.83 56.9769V50.2792H152.438C152.502 50.2792 152.578 50.2823 152.667 50.2885C152.756 50.2916 152.841 50.3009 152.924 50.3164C153.281 50.3722 153.581 50.4962 153.822 50.6885C154.067 50.8808 154.25 51.1241 154.372 51.4187C154.494 51.7102 154.555 52.0342 154.555 52.3908C154.555 52.7443 154.493 53.0683 154.368 53.3629C154.245 53.6544 154.062 53.8978 153.817 54.0931C153.576 54.2854 153.278 54.4094 152.924 54.4652C152.841 54.4776 152.756 54.4869 152.667 54.4931C152.578 54.4994 152.502 54.5024 152.438 54.5024H150.645V56.9769H149.83ZM150.645 53.7164H152.41C152.468 53.7164 152.534 53.7133 152.607 53.7071C152.684 53.7009 152.756 53.6901 152.823 53.6745C153.034 53.6249 153.205 53.535 153.336 53.4048C153.471 53.2715 153.568 53.1164 153.63 52.9396C153.691 52.7598 153.721 52.5769 153.721 52.3908C153.721 52.2048 153.691 52.0234 153.63 51.8466C153.568 51.6668 153.471 51.5102 153.336 51.3769C153.205 51.2435 153.034 51.1536 152.823 51.1071C152.756 51.0885 152.684 51.0776 152.607 51.0745C152.534 51.0683 152.468 51.0652 152.41 51.0652H150.645V53.7164ZM155.47 56.9769V50.2792H156.286V53.2327H159.76V50.2792H160.576V56.9769H159.76V54.0187H156.286V56.9769H155.47ZM161.404 56.9769L163.613 50.2792H164.75L166.959 56.9769H166.111L164.044 50.7629H164.301L162.252 56.9769H161.404ZM162.467 55.4094V54.6327H165.896V55.4094H162.467ZM172.368 56.9769H171.552V54.5024H169.522L169.21 54.4513C168.696 54.3552 168.307 54.118 168.041 53.7396C167.775 53.3583 167.642 52.9087 167.642 52.3908C167.642 52.0342 167.703 51.7102 167.826 51.4187C167.951 51.1241 168.134 50.8808 168.376 50.6885C168.62 50.4962 168.919 50.3722 169.274 50.3164C169.359 50.3009 169.445 50.2916 169.531 50.2885C169.619 50.2823 169.696 50.2792 169.76 50.2792H172.368V56.9769ZM168.44 56.9769H167.505L168.935 54.0001L169.742 54.2513L168.44 56.9769ZM171.552 53.7164V51.0652H169.787C169.732 51.0652 169.666 51.0683 169.59 51.0745C169.517 51.0776 169.445 51.0885 169.375 51.1071C169.164 51.1536 168.993 51.2435 168.861 51.3769C168.73 51.5102 168.632 51.6668 168.568 51.8466C168.507 52.0234 168.476 52.2048 168.476 52.3908C168.476 52.5769 168.507 52.7598 168.568 52.9396C168.632 53.1164 168.73 53.2715 168.861 53.4048C168.993 53.535 169.164 53.6249 169.375 53.6745C169.445 53.6901 169.517 53.7009 169.59 53.7071C169.666 53.7133 169.732 53.7164 169.787 53.7164H171.552ZM81.4309 66.2792V59.5815H82.2468V65.4931H84.5983V59.5815H85.4142V65.4931H87.7657V59.5815H88.5816V66.2792H81.4309ZM90.8959 66.2792L91.6843 64.6187L89.3603 59.5815H90.2725L92.1106 63.735L93.9899 59.5815H94.8608L91.7805 66.2792H90.8959ZM95.6212 66.2792V59.5815H96.3637L98.8573 64.9164L101.337 59.5815H102.089V66.2745H101.314V61.4001L99.0728 66.2792H98.6373L96.3958 61.4001V66.2792H95.6212ZM106.088 66.4187C105.43 66.4187 104.873 66.2716 104.415 65.9769C103.956 65.6821 103.606 65.2728 103.365 64.7489C103.127 64.2251 103.007 63.6187 103.007 62.9303C103.007 62.242 103.127 61.6356 103.365 61.1117C103.606 60.5879 103.956 60.1786 104.415 59.8838C104.873 59.5891 105.43 59.442 106.088 59.442C106.748 59.442 107.307 59.5891 107.765 59.8838C108.224 60.1786 108.572 60.5879 108.81 61.1117C109.049 61.6356 109.168 62.242 109.168 62.9303C109.168 63.6187 109.049 64.2251 108.81 64.7489C108.572 65.2728 108.224 65.6821 107.765 65.9769C107.307 66.2716 106.748 66.4187 106.088 66.4187ZM106.088 65.628C106.58 65.6309 106.989 65.5193 107.316 65.2931C107.646 65.0635 107.892 64.746 108.054 64.3397C108.219 63.9333 108.302 63.4635 108.302 62.9303C108.302 62.3937 108.219 61.924 108.054 61.521C107.892 61.1181 107.646 60.803 107.316 60.5769C106.989 60.3507 106.58 60.2356 106.088 60.2327C105.595 60.2298 105.186 60.3414 104.859 60.5676C104.535 60.7937 104.291 61.11 104.126 61.5164C103.961 61.9228 103.877 62.3937 103.874 62.9303C103.871 63.4635 103.952 63.9321 104.117 64.335C104.282 64.7379 104.527 65.0542 104.855 65.2838C105.185 65.51 105.595 65.6251 106.088 65.628ZM110.089 66.2792V59.5815H110.831L113.325 64.9164L115.805 59.5815H116.556V66.2745H115.782V61.4001L113.54 66.2792H113.105L110.863 61.4001V66.2792H110.089ZM117.842 66.2792V59.5815H122.013V60.3676H118.658V62.4652H121.463V63.2513H118.658V65.4931H122.013V66.2792H117.842ZM124.815 66.2792V60.3676H122.565V59.5815H127.882V60.3676H125.631V66.2792H124.815ZM128.612 66.2792V59.5815H131.22C131.284 59.5815 131.36 59.5844 131.449 59.5908C131.537 59.5937 131.623 59.603 131.706 59.6187C132.063 59.6745 132.362 59.7984 132.604 59.9908C132.848 60.1833 133.032 60.4263 133.154 60.721C133.276 61.0123 133.338 61.3367 133.338 61.6931C133.338 62.0466 133.275 62.3705 133.15 62.6652C133.027 62.9565 132.844 63.2001 132.6 63.3955C132.358 63.5879 132.06 63.7117 131.706 63.7676C131.623 63.7798 131.537 63.7891 131.449 63.7955C131.36 63.8019 131.284 63.8048 131.22 63.8048H129.428V66.2792H128.612ZM129.428 63.0187H131.192C131.25 63.0187 131.316 63.0158 131.39 63.0094C131.466 63.003 131.537 62.9926 131.605 62.9769C131.816 62.9274 131.987 62.8373 132.118 62.7071C132.252 62.574 132.35 62.4187 132.412 62.242C132.472 62.0623 132.503 61.8792 132.503 61.6931C132.503 61.5071 132.472 61.3257 132.412 61.149C132.35 60.9693 132.252 60.8123 132.118 60.6792C131.987 60.546 131.816 60.4559 131.605 60.4094C131.537 60.3908 131.466 60.3798 131.39 60.3769C131.316 60.3705 131.25 60.3676 131.192 60.3676H129.428V63.0187ZM139.345 66.2792H138.52V61.042L135.077 66.2792H134.252V59.5815H135.077V64.8141L138.52 59.5815H139.345V66.2792ZM145.215 66.2792H144.399V63.8048H142.368L142.057 63.7536C141.543 63.6577 141.154 63.4205 140.888 63.042C140.622 62.6606 140.489 62.2112 140.489 61.6931C140.489 61.3367 140.55 61.0123 140.672 60.721C140.797 60.4263 140.981 60.1833 141.222 59.9908C141.466 59.7984 141.766 59.6745 142.121 59.6187C142.206 59.603 142.292 59.5937 142.377 59.5908C142.466 59.5844 142.543 59.5815 142.607 59.5815H145.215V66.2792ZM141.287 66.2792H140.351L141.782 63.3024L142.588 63.5536L141.287 66.2792ZM144.399 63.0187V60.3676H142.634C142.579 60.3676 142.513 60.3705 142.437 60.3769C142.364 60.3798 142.292 60.3908 142.222 60.4094C142.011 60.4559 141.839 60.546 141.708 60.6792C141.576 60.8123 141.479 60.9693 141.415 61.149C141.354 61.3257 141.323 61.5071 141.323 61.6931C141.323 61.8792 141.354 62.0623 141.415 62.242C141.479 62.4187 141.576 62.574 141.708 62.7071C141.839 62.8373 142.011 62.9274 142.222 62.9769C142.292 62.9926 142.364 63.003 142.437 63.0094C142.513 63.0158 142.579 63.0187 142.634 63.0187H144.399Z" fill="#FF6F61" fill-opacity="0.8"/>
</svg>
