<svg width="80" height="80" viewBox="0 0 80 80" fill="none" xmlns="http://www.w3.org/2000/svg">
<path d="M70 15.8314V6.25C69.9989 5.25579 69.6034 4.30262 68.9004 3.59961C68.1974 2.89659 67.2442 2.50114 66.25 2.5H13.75C12.7558 2.50114 11.8026 2.89659 11.0996 3.59961C10.3966 4.30262 10.0011 5.25579 10 6.25V73.75C10.0011 74.7442 10.3966 75.6974 11.0996 76.4004C11.8026 77.1034 12.7558 77.4989 13.75 77.5H66.25C67.2442 77.4989 68.1974 77.1034 68.9004 76.4004C69.6034 75.6974 69.9989 74.7442 70 73.75V25.5423L71.4133 19.7322C71.5869 19.0151 71.5455 18.2627 71.2942 17.5689C71.0428 16.8752 70.5927 16.2709 70 15.8314ZM67.5 73.75C67.4996 74.0814 67.3678 74.3991 67.1335 74.6335C66.8991 74.8678 66.5814 74.9996 66.25 75H13.75C13.4186 74.9996 13.1009 74.8678 12.8665 74.6335C12.6322 74.3991 12.5004 74.0814 12.5 73.75V6.25C12.5004 5.9186 12.6322 5.60087 12.8665 5.36654C13.1009 5.1322 13.4186 5.00038 13.75 5H66.25C66.5814 5.00038 66.8991 5.1322 67.1335 5.36654C67.3678 5.60087 67.4996 5.9186 67.5 6.25V15.1056C66.5425 15.1767 65.6483 15.6106 65 16.3187V7.5H15V72.5H65V46.0978L67.5 35.82V73.75ZM56.0102 67.1896L60.9834 62.6103L62.5 56.3756V70H17.5V10H62.5V24.643L53.696 60.8377L56.0102 67.1896ZM62.5052 45.7768H62.5V45.7982L58.7332 61.284L57.0754 62.8104L56.304 60.6931L64.9861 25H65V24.9429L65.3732 23.4087L67.8023 23.9996L62.5052 45.7768ZM68.9841 19.1412L68.3932 21.5704L65.964 20.9795L66.5549 18.5503C66.5937 18.3908 66.6636 18.2406 66.7604 18.1081C66.8573 17.9756 66.9794 17.8635 67.1196 17.7781C67.2598 17.6928 67.4154 17.6359 67.5776 17.6107C67.7398 17.5855 67.9054 17.5925 68.0649 17.6313C68.2244 17.6701 68.3747 17.7399 68.5072 17.8368C68.6397 17.9336 68.7519 18.0557 68.8372 18.1959C68.9226 18.3361 68.9795 18.4918 69.0047 18.654C69.0299 18.8162 69.0229 18.9817 68.9841 19.1412Z" fill="black"/>
<path d="M30 13.75H50V16.25H30V13.75Z" fill="black"/>
<path d="M33.75 23.75H58.75V26.25H33.75V23.75Z" fill="black"/>
<path d="M28.75 26.25C28.7496 26.5814 28.6178 26.8991 28.3835 27.1335C28.1491 27.3678 27.8314 27.4996 27.5 27.5H25C24.6686 27.4996 24.3509 27.3678 24.1165 27.1335C23.8822 26.8991 23.7504 26.5814 23.75 26.25V23.75C23.7504 23.4186 23.8822 23.1009 24.1165 22.8665C24.3509 22.6322 24.6686 22.5004 25 22.5H26.25V20H25C24.0058 20.0011 23.0526 20.3966 22.3496 21.0996C21.6466 21.8026 21.2511 22.7558 21.25 23.75V26.25C21.2511 27.2442 21.6466 28.1974 22.3496 28.9004C23.0526 29.6034 24.0058 29.9989 25 30H27.5C28.4942 29.9989 29.4474 29.6034 30.1504 28.9004C30.8534 28.1974 31.2489 27.2442 31.25 26.25V25H28.75V26.25Z" fill="black"/>
<path d="M27.5 32.5H25C24.0058 32.5011 23.0526 32.8966 22.3496 33.5996C21.6466 34.3026 21.2511 35.2558 21.25 36.25V38.75C21.2511 39.7442 21.6466 40.6974 22.3496 41.4004C23.0526 42.1034 24.0058 42.4989 25 42.5H27.5C28.4942 42.4989 29.4474 42.1034 30.1504 41.4004C30.8534 40.6974 31.2489 39.7442 31.25 38.75V36.25C31.2489 35.2558 30.8534 34.3026 30.1504 33.5996C29.4474 32.8966 28.4942 32.5011 27.5 32.5ZM28.75 38.75C28.7496 39.0814 28.6178 39.3991 28.3835 39.6335C28.1491 39.8678 27.8314 39.9996 27.5 40H25C24.6686 39.9996 24.3509 39.8678 24.1165 39.6335C23.8822 39.3991 23.7504 39.0814 23.75 38.75V36.25C23.7504 35.9186 23.8822 35.6009 24.1165 35.3665C24.3509 35.1322 24.6686 35.0004 25 35H27.5C27.8314 35.0004 28.1491 35.1322 28.3835 35.3665C28.6178 35.6009 28.7496 35.9186 28.75 36.25V38.75Z" fill="black"/>
<path d="M27.5 45H25C24.0058 45.0011 23.0526 45.3966 22.3496 46.0996C21.6466 46.8026 21.2511 47.7558 21.25 48.75V51.25C21.2511 52.2442 21.6466 53.1974 22.3496 53.9004C23.0526 54.6034 24.0058 54.9989 25 55H27.5C28.4942 54.9989 29.4474 54.6034 30.1504 53.9004C30.8534 53.1974 31.2489 52.2442 31.25 51.25V48.75C31.2489 47.7558 30.8534 46.8026 30.1504 46.0996C29.4474 45.3966 28.4942 45.0011 27.5 45ZM28.75 51.25C28.7496 51.5814 28.6178 51.8991 28.3835 52.1335C28.1491 52.3678 27.8314 52.4996 27.5 52.5H25C24.6686 52.4996 24.3509 52.3678 24.1165 52.1335C23.8822 51.8991 23.7504 51.5814 23.75 51.25V48.75C23.7504 48.4186 23.8822 48.1009 24.1165 47.8665C24.3509 47.6322 24.6686 47.5004 25 47.5H27.5C27.8314 47.5004 28.1491 47.6322 28.3835 47.8665C28.6178 48.1009 28.7496 48.4186 28.75 48.75V51.25Z" fill="black"/>
<path d="M33.75 36.25H56.25V38.75H33.75V36.25Z" fill="black"/>
<path d="M33.75 48.75H53.75V51.25H33.75V48.75Z" fill="black"/>
<path d="M27.5 57.5H25C24.0058 57.5011 23.0526 57.8966 22.3496 58.5996C21.6466 59.3026 21.2511 60.2558 21.25 61.25V63.75C21.2511 64.7442 21.6466 65.6974 22.3496 66.4004C23.0526 67.1034 24.0058 67.4989 25 67.5H27.5C28.4942 67.4989 29.4474 67.1034 30.1504 66.4004C30.8534 65.6974 31.2489 64.7442 31.25 63.75V61.25C31.2489 60.2558 30.8534 59.3026 30.1504 58.5996C29.4474 57.8966 28.4942 57.5011 27.5 57.5ZM28.75 63.75C28.7496 64.0814 28.6178 64.3991 28.3835 64.6335C28.1491 64.8678 27.8314 64.9996 27.5 65H25C24.6686 64.9996 24.3509 64.8678 24.1165 64.6335C23.8822 64.3991 23.7504 64.0814 23.75 63.75V61.25C23.7504 60.9186 23.8822 60.6009 24.1165 60.3665C24.3509 60.1322 24.6686 60.0004 25 60H27.5C27.8314 60.0004 28.1491 60.1322 28.3835 60.3665C28.6178 60.6009 28.7496 60.9186 28.75 61.25V63.75Z" fill="black"/>
<path d="M33.75 61.25H51.25V63.75H33.75V61.25Z" fill="black"/>
<path d="M25.361 24.1149L30.3603 19.1156L32.1278 20.8831L27.1285 25.8824L25.361 24.1149Z" fill="black"/>
</svg>
