<svg width="80" height="80" viewBox="0 0 80 80" fill="none" xmlns="http://www.w3.org/2000/svg">
<path d="M69.6224 38.3008L54.6711 28.3333C51.4061 26.1523 46.9269 26.1523 43.6621 28.3333L43.3333 28.553V18.8667C45.4889 19.4944 47.4778 20 48.3333 20C51.0905 20 53.3333 17.7572 53.3333 15C53.3333 12.2428 51.0905 10 48.3333 10C47.4778 10 45.4889 10.5056 43.3333 11.1333V6.66672C43.3333 2.98984 40.3435 0 36.6667 0C32.99 0 30 2.98984 30 6.66672V11.1333C27.8444 10.5056 25.8555 10 25 10C22.2428 10 20 12.2428 20 15C20 17.7572 22.2428 20 25 20C25.8555 20 27.8444 19.4944 30 18.8667V51.2727C30 52.1125 29.4466 52.5437 29.2089 52.6903C28.9697 52.8369 28.3316 53.138 27.5878 52.7636L16.8847 47.412C15.9097 46.9238 14.8177 46.6666 13.7272 46.6666C9.83394 46.6666 6.66675 49.8339 6.66675 53.7272V55C6.66675 55.4622 6.85878 55.9033 7.19565 56.2191L26.4324 74.1716C30.4574 77.9297 35.708 80 41.2175 80H56.6667C65.8563 80 73.3335 72.5228 73.3335 63.3333V45.2344C73.3333 42.4414 71.9466 39.8503 69.6224 38.3008ZM48.3333 13.3333C49.253 13.3333 50 14.0805 50 15C50 15.9195 49.253 16.6667 48.335 16.6667C47.6791 16.6586 45.0685 15.9342 42.0589 15C45.0685 14.0658 47.6774 13.3414 48.3333 13.3333ZM33.3333 6.66672C33.3333 4.82922 34.8291 3.33344 36.6666 3.33344C38.5041 3.33344 39.9999 4.82922 39.9999 6.66672V12.1509C38.6661 12.5758 37.4978 12.9619 36.6666 13.2414C35.8353 12.9619 34.6671 12.5758 33.3333 12.1509V6.66672ZM25 16.6667C24.0805 16.6667 23.3333 15.9197 23.3333 15C23.3333 14.0803 24.0803 13.3333 24.9983 13.3333C25.6542 13.3414 28.2649 14.0658 31.2744 15C28.265 15.9342 25.656 16.6586 25 16.6667ZM70 63.3333C70 70.6852 64.0186 76.6666 56.6667 76.6666H41.2175C36.5561 76.6666 32.1127 74.9153 28.7077 71.7348L10 54.2758V53.7273C10 51.6716 11.6716 50 13.7272 50C14.3017 50 14.8796 50.1367 15.3939 50.3939L26.0971 55.7455C27.6563 56.5252 29.4792 56.4437 30.9619 55.5273C32.4463 54.6094 33.3333 53.0192 33.3333 51.2728V17.8491C34.6671 17.4242 35.8353 17.0381 36.6666 16.7586C37.4978 17.0381 38.6661 17.4242 39.9999 17.8491V31.6666C39.9999 32.2819 40.3385 32.8466 40.8803 33.1362C41.4207 33.4244 42.0799 33.3934 42.591 33.0533L45.511 31.1067C47.6822 29.6581 50.651 29.6581 52.8222 31.1067L67.7735 41.0742C69.1683 42.0036 70 43.5595 70 45.2344V63.3333Z" fill="black"/>
</svg>
