<svg width="80" height="80" viewBox="0 0 80 80" fill="none" xmlns="http://www.w3.org/2000/svg">
<path d="M66.7181 0H13.2812C8.2843 0 4.21875 4.06555 4.21875 9.0625V66.8744C4.21875 69.4592 6.32141 71.5619 8.90625 71.5619H29.4269C30.2899 71.5619 30.9894 70.8624 30.9894 69.9994C30.9894 69.1364 30.2899 68.4369 29.4269 68.4369H8.90625C8.04443 68.4369 7.34375 67.7362 7.34375 66.8744V9.0625C7.34375 5.78857 10.0073 3.125 13.2812 3.125H59.8804C58.4967 4.7168 57.6556 6.7926 57.6556 9.0625V59.4165C57.6556 60.8582 56.4832 62.0306 55.0415 62.0306C53.9148 62.0306 52.9181 61.3123 52.561 60.2435L50.2063 53.1781C49.5416 51.1835 47.6819 49.8438 45.5798 49.8438C42.8906 49.8438 40.7031 52.0312 40.7031 54.7198V55.9369H32.6044C31.7413 55.9369 31.0419 56.637 31.0419 57.4994C31.0419 58.3624 31.7413 59.0619 32.6044 59.0619H40.7031V66.8353C40.7031 69.1425 41.153 71.3922 42.0404 73.5211L44.339 79.0381C44.5892 79.6381 45.1697 80 45.7819 80C45.9821 80 46.1859 79.9615 46.3818 79.8798C47.179 79.5477 47.5555 78.6328 47.2235 77.8363L44.9249 72.3193C44.1974 70.5731 43.8281 68.728 43.8281 66.8359V54.7205C43.8281 53.7543 44.6136 52.9688 45.5798 52.9688C46.3348 52.9688 47.0032 53.4497 47.2418 54.1663L49.5966 61.2317C50.379 63.5785 52.5671 65.1556 55.0415 65.1556C58.2062 65.1556 60.7806 62.5812 60.7806 59.4165V32.6276L62.8687 34.7113C66.5942 38.4296 68.6456 43.3765 68.6456 48.6395V65.249C68.6456 69.5514 67.6709 73.88 65.8276 77.7673C65.4578 78.5468 65.7904 79.4788 66.5698 79.8486C67.3492 80.2185 68.2812 79.8865 68.6511 79.1064C70.6915 74.8035 71.7706 70.0116 71.7706 65.249V48.6395C71.7706 42.5403 69.3933 36.8085 65.0763 32.4994L60.7806 28.2117V26.7188H71.0931C73.678 26.7188 75.7806 24.6161 75.7806 22.0312V9.0625C75.7806 4.06555 71.7157 0 66.7181 0ZM72.6556 22.0312C72.6556 22.8925 71.955 23.5938 71.0931 23.5938H60.7806V9.0625C60.7806 5.78857 63.4442 3.125 66.7181 3.125C69.9921 3.125 72.6556 5.78857 72.6556 9.0625V22.0312Z" fill="black"/>
<path d="M36.25 68.4369C35.8386 68.4369 35.4358 68.6041 35.1453 68.8947C34.8547 69.1858 34.6875 69.5886 34.6875 69.9994C34.6875 70.4108 34.8547 70.8136 35.1453 71.1041C35.4358 71.3947 35.8386 71.5619 36.25 71.5619C36.6608 71.5619 37.0636 71.3947 37.3547 71.1041C37.6453 70.8136 37.8125 70.4108 37.8125 69.9994C37.8125 69.5886 37.6453 69.1858 37.3547 68.8947C37.0636 68.6041 36.6608 68.4369 36.25 68.4369Z" fill="black"/>
<path d="M25.7294 11.5625C25.7294 9.83948 24.3274 8.4375 22.6044 8.4375H15.7294C14.0057 8.4375 12.6044 9.83948 12.6044 11.5625V18.4375C12.6044 20.1605 14.0057 21.5625 15.7294 21.5625H22.6044C24.3274 21.5625 25.7294 20.1605 25.7294 18.4375V11.5625ZM22.6044 18.4375H15.7294V11.5625H22.6044L22.6062 18.4375C22.6062 18.4375 22.6056 18.4375 22.6044 18.4375Z" fill="black"/>
<path d="M25.7294 30.3125C25.7294 28.5895 24.3274 27.1875 22.6044 27.1875H15.7294C14.0057 27.1875 12.6044 28.5895 12.6044 30.3125V37.1875C12.6044 38.9105 14.0057 40.3125 15.7294 40.3125H22.6044C24.3274 40.3125 25.7294 38.9105 25.7294 37.1875V30.3125ZM22.6044 37.1875H15.7294V30.3125H22.6044L22.6062 37.1875C22.6062 37.1875 22.6056 37.1875 22.6044 37.1875Z" fill="black"/>
<path d="M22.6044 45.9375H15.7294C14.0057 45.9375 12.6044 47.3389 12.6044 49.0625V55.9369C12.6044 57.6605 14.0057 59.0619 15.7294 59.0619H22.6044C24.3274 59.0619 25.7294 57.6605 25.7294 55.9369V49.0625C25.7294 47.3389 24.3274 45.9375 22.6044 45.9375ZM22.6044 55.9369H15.7294V49.0625H22.6044L22.6062 55.9369C22.6062 55.9369 22.6056 55.9369 22.6044 55.9369Z" fill="black"/>
<path d="M50.5206 21.5625C51.3837 21.5625 52.0831 20.863 52.0831 20C52.0831 19.137 51.3837 18.4375 50.5206 18.4375H39.7491C38.8861 18.4375 38.1866 19.137 38.1866 20C38.1866 20.863 38.8861 21.5625 39.7491 21.5625H50.5206Z" fill="black"/>
<path d="M32.6044 21.5625C33.0157 21.5625 33.4186 21.3953 33.7091 21.1047C33.9996 20.8142 34.1669 20.4108 34.1669 20C34.1669 19.5892 33.9996 19.1858 33.7091 18.8953C33.4186 18.6047 33.0157 18.4375 32.6044 18.4375C32.1918 18.4375 31.7902 18.6047 31.4996 18.8953C31.2079 19.1858 31.0419 19.5892 31.0419 20C31.0419 20.4108 31.2079 20.8142 31.4996 21.1047C31.7902 21.3953 32.1918 21.5625 32.6044 21.5625Z" fill="black"/>
<path d="M32.6038 40.3125H50.5206C51.3837 40.3125 52.0831 39.613 52.0831 38.75C52.0831 37.887 51.3837 37.1875 50.5206 37.1875H32.6038C31.7413 37.1875 31.0413 37.887 31.0413 38.75C31.0413 39.613 31.7413 40.3125 32.6038 40.3125Z" fill="black"/>
</svg>
