<svg width="128" height="128" viewBox="0 0 128 128" fill="none" xmlns="http://www.w3.org/2000/svg">
<path d="M55.2728 43.6364C56.8794 43.6364 58.1818 42.334 58.1818 40.7274C58.1818 39.1208 56.8794 37.8184 55.2728 37.8184C53.6662 37.8184 52.3638 39.1208 52.3638 40.7274C52.3638 42.334 53.6662 43.6364 55.2728 43.6364Z" fill="black"/>
<path d="M72.7272 43.6364C74.3338 43.6364 75.6362 42.334 75.6362 40.7274C75.6362 39.1208 74.3338 37.8184 72.7272 37.8184C71.1206 37.8184 69.8182 39.1208 69.8182 40.7274C69.8182 42.334 71.1206 43.6364 72.7272 43.6364Z" fill="black"/>
<path d="M69.8183 14.5455H66.9093V11.6363C66.9093 9.89079 65.7455 8.72729 64.0003 8.72729C62.255 8.72729 61.0913 9.89104 61.0913 11.6363V14.5453H58.1823C56.4368 14.5453 55.2733 15.709 55.2733 17.4543C55.2733 19.1995 56.437 20.3633 58.1823 20.3633H61.0913V23.2723C61.0913 25.0178 62.255 26.1813 64.0003 26.1813C65.7455 26.1813 66.9093 25.0175 66.9093 23.2723V20.3638H69.8183C71.5638 20.3638 72.7273 19.2 72.7273 17.4548C72.7273 15.7095 71.5638 14.5455 69.8183 14.5455Z" fill="black"/>
<path d="M78.5455 0H49.4545C41.309 0 34.909 6.4 34.909 14.5455V32C34.909 37.8182 36.9452 51.491 37.2362 51.7817C37.818 56.7272 39.5635 61.3817 42.7635 65.1635L43.3452 66.0362C48.2907 72.1452 55.8542 75.6363 63.9997 75.6363C72.1452 75.6363 79.418 72.1452 84.6542 66.0362L85.236 65.1635C88.436 61.3817 90.1815 56.7272 90.7632 52.0725C90.7632 51.4907 93.0905 37.818 93.0905 31.9998V14.5455C93.091 6.4 86.691 0 78.5455 0ZM80.5817 61.3817L80 62.2545C76.2182 67.2 70.4 69.8183 64 69.8183C57.6 69.8183 51.7817 67.2 48 62.2545L47.4182 61.3817C45.6727 59.3455 44.5092 57.309 43.9272 54.6908L60.2182 52.6543C62.8365 52.3633 65.4545 52.3633 68.0727 52.6543L84.3637 54.6908C83.491 57.309 82.3272 59.6362 80.5817 61.3817ZM85.2362 49.1637L68.6545 47.1275C65.4545 46.8365 62.2545 46.8365 59.3455 47.1275L42.7637 49.1637C42.182 45.9637 41.3092 39.5637 41.0182 34.9092H87.2727C86.691 39.5637 85.8182 45.9637 85.2362 49.1637ZM87.2727 29.091H40.7272V14.5455C40.7272 9.6 44.509 5.81825 49.4545 5.81825H78.5455C83.491 5.81825 87.2727 9.6 87.2727 14.5455V29.091Z" fill="black"/>
<path d="M101.818 85.5273L82.0365 81.4545C81.1638 81.1635 80.291 81.4545 79.7093 82.0362L67.782 91.9273C65.7455 93.6728 62.5458 93.6728 60.2183 91.9273C59.0545 90.7635 57.0183 91.0545 56.1455 92.2182C54.9818 93.382 55.2728 95.4182 56.4365 96.291C57.891 97.4548 59.3455 98.0365 61.091 98.6182V113.164C61.091 114.909 62.2548 116.073 64 116.073C65.7455 116.073 66.909 114.909 66.909 113.164V98.6182C68.6545 98.3272 70.109 97.4545 71.5635 96.291L82.3273 87.2728L100.655 91.0545C104.727 91.9272 107.636 95.4183 107.636 99.4908V119.272C107.636 121.018 106.473 122.182 104.727 122.182H23.2728C21.5273 122.182 20.3638 121.018 20.3638 119.272V99.7815C20.3638 95.7088 23.2728 91.927 27.3455 91.3453L46.8365 87.5635H66.9093C68.6548 87.5635 69.8183 86.3998 69.8183 84.6545C69.8183 82.909 68.6545 81.7455 66.9093 81.7455H46.5455C46.2545 81.7455 46.2545 81.7455 45.9638 81.7455L26.182 85.5273C19.491 86.9818 14.5458 92.8 14.5458 99.7818V119.273C14.5458 124.218 18.3275 128 23.273 128H104.728C109.673 128 113.455 124.218 113.455 119.273V99.7818C113.455 92.8 108.509 86.691 101.818 85.5273Z" fill="black"/>
<path d="M98.909 104.727H87.2728C85.5273 104.727 84.3638 105.891 84.3638 107.636C84.3638 109.382 85.5275 110.545 87.2728 110.545H98.909C100.655 110.545 101.818 109.382 101.818 107.636C101.818 105.891 100.655 104.727 98.909 104.727Z" fill="black"/>
</svg>
