<svg width="1920" height="1080" viewBox="0 0 1920 1080" fill="none" xmlns="http://www.w3.org/2000/svg">
<mask id="mask0_406_8" style="mask-type:alpha" maskUnits="userSpaceOnUse" x="0" y="0" width="1920" height="1080">
<rect width="1920" height="1080" fill="#D8F5FF"/>
</mask>
<g mask="url(#mask0_406_8)">
<rect width="1920" height="1080" fill="#D8F5FF"/>
<path d="M1789.5 65.5C1889.5 41.5 1820 44 1883.5 -21.5H1950.5V1084H-114.5C-107.167 956.333 -70.3 692.7 18.5 659.5C129.5 618 96.5 618.5 201 599C305.5 579.5 327.5 594.5 492.5 559.5C657.5 524.5 553.5 466 653.5 427C753.5 388 684 335.5 849.5 272.5C940.354 237.915 1087.69 205 1189 205C1280.5 205 1267.5 213.5 1485 194C1702.5 174.5 1565.5 150.5 1641.5 111.5C1717.5 72.5 1689.5 89.5 1789.5 65.5Z" fill="#D4F0FF"/>
<path d="M1692 268C1791.6 259.2 1913.17 296.333 1961.5 316V1258L-82 1245V955.5C-22.5 951.167 16 834.7 112 831.5C232 827.5 214 764 334 733.5C369.085 724.582 505.5 705.5 645 653C784.5 600.5 743 588 841 453C939 318 943 372.5 1167.5 342C1392 311.5 1308.5 344 1448 342C1587.5 340 1567.5 279 1692 268Z" fill="#D1ECFF"/>
<path d="M1539.5 422C1643.1 360 1922.5 308.5 1944.5 415.5V1205H-150C-150 1132 -146.6 995.2 -133 1032C-116 1078 -35.3833 1010.16 172.5 951.5C413.5 883.5 369.5 848.5 646 733C922.5 617.5 1041.5 715 1240.5 662C1376.78 625.704 1410 499.5 1539.5 422Z" fill="#CDE4FF"/>
</g>
</svg>
