<svg width="1920" height="928" viewBox="0 0 1920 928" fill="none" xmlns="http://www.w3.org/2000/svg">
<g opacity="0.8">
<mask id="mask0_142_15" style="mask-type:alpha" maskUnits="userSpaceOnUse" x="0" y="0" width="1920" height="928">
<rect width="1920" height="928" fill="#D8F5FF"/>
</mask>
<g mask="url(#mask0_142_15)">
<rect width="1920" height="928" fill="#D8F5FF"/>
<path d="M172 163C110 117 108.5 115 -27.5 109V955.5C309.833 958.833 992.1 955.9 1022.5 917.5C1060.5 869.5 1022.5 842 984.5 774C946.5 706 911 718 851 686C791 654 771 596.5 671.5 486.5C572 376.5 595.5 434.5 553.5 390.5C511.5 346.5 417.5 301 348 299C278.5 297 234 209 172 163Z" fill="#D4F0FF"/>
<path d="M1691.5 51C1717.5 7 1809.5 -34.5 1831.5 -42.5H1941V983.5C1804 980.167 1522.4 971.5 1492 963.5C1461.6 955.5 1447.33 843.167 1444 788C1448 610.333 1457.2 249.4 1462 227C1468 199 1571.5 149 1589.5 149C1607.5 149 1665.5 95 1691.5 51Z" fill="#D4F0FF"/>
<path d="M81.5 239C21.9 172.6 -61.6667 161.667 -96 164.5V1033C119.833 1039.67 580.1 1053.6 694.5 1056C837.5 1059 783.5 998.5 798 904C812.5 809.5 769 812.5 755 763.5C741 714.5 606 649 500 634.5C394 620 416.007 469.792 204.5 371C45 296.5 156 322 81.5 239Z" fill="#D1ECFF"/>
<path d="M140.5 471C53.3 448.2 9.5 325.5 -1.5 267H-65V979H678.5C646.833 952.667 578.6 889.5 559 847.5C534.5 795 459 743.5 413 736.5C367 729.5 348 652 322 610C296 568 249.5 499.5 140.5 471Z" fill="#CDE4FF"/>
<path d="M1832.5 -1.5C1876.1 -54.3 1940.33 -103.833 1967 -122L2004.5 1024.5C1972 1029.17 1896.1 1035.7 1852.5 1024.5C1798 1010.5 1796.5 933.5 1733.5 876C1670.5 818.5 1626 835 1617.5 809.5C1609 784 1614.5 709 1597.5 597.5C1580.5 486 1679 516.5 1733.5 390.5C1788 264.5 1740.19 266.726 1760 157C1779.5 49 1778 64.5 1832.5 -1.5Z" fill="#D1ECFF"/>
<path d="M1841 101.5C1834.2 51.1 1891.5 -30.1667 1921 -64.5V967C1915.33 967 1891.4 955 1841 907C1778 847 1904 726.5 1904 640.5C1904 554.5 1861 514 1841 462.5C1821 411 1878.5 331 1904 259C1929.5 187 1849.5 164.5 1841 101.5Z" fill="#CDE4FF"/>
</g>
</g>
</svg>
