<svg width="1920" height="458" viewBox="0 0 1920 458" fill="none" xmlns="http://www.w3.org/2000/svg">
<g opacity="0.8">
<mask id="mask0_144_38" style="mask-type:alpha" maskUnits="userSpaceOnUse" x="0" y="0" width="1920" height="458">
<rect width="1920" height="458" fill="#D8F5FF"/>
</mask>
<g mask="url(#mask0_144_38)">
<rect width="1920" height="458" fill="#D8F5FF"/>
<path d="M1964 123.5C2021.2 123.5 2047.83 96.5 2054 83V-5.5L587 -22C599.167 -6.66667 629.8 26.2 655 35C686.5 46 794.5 62.5 868 62.5C941.5 62.5 1057 123.5 1156 123.5C1255 123.5 1318 193 1444.5 193C1571 193 1567.5 195 1687 193C1806.5 191 1729 193 1786 174.5C1843 156 1892.5 123.5 1964 123.5Z" fill="#D4F0FF"/>
<path d="M197.5 178.5C75.5 146.5 -40.3333 165.167 -83 178.5V553C142.167 578 646.1 627.7 860.5 626.5C1128.5 625 1196.5 578.5 1431.5 553C1666.5 527.5 1520 441 1431.5 422.5C1343 404 1367.5 353 1299.5 338C1231.5 323 1180 297.5 1072 286.5C964 275.5 969 294 840.5 297.5C712 301 680.5 241 522.5 246.5C364.5 252 350 218.5 197.5 178.5Z" fill="#D4F0FF"/>
<path d="M84 270C4.8 258 -56.6667 265 -77.5 270V512.5C355.167 532.667 1220.5 563.8 1220.5 527C1220.5 481 1138 435.5 1101 406C1064 376.5 936 373 875.5 387.5C815 402 747 356.5 631 323.5C515 290.5 567 319.5 475 323.5C383 327.5 370.5 303 291.5 294C212.5 285 183 285 84 270Z" fill="#D1ECFF"/>
<path d="M1896 75.4999C1984 43.0999 2008.67 61.9999 2010 75.4999V-18L947 -47.5C924.333 -34.6667 879.4 -6 881 6C883 21 934 48 971 53.5C1008 59 1072 75.4999 1128.5 75.4999C1185 75.4999 1231.5 127 1380 138C1528.5 149 1439 151 1586 151H1672C1714 151 1786 116 1896 75.4999Z" fill="#D1ECFF"/>
<path d="M1824.5 35.0001C1956.5 25.5001 1942 35.0001 1953 35.0001V-12.5H954C976.667 -0.833333 1026.8 22.5 1046 22.5C1070 22.5 1123 48 1160 48C1197 48 1301.5 35.0001 1385.5 35.0001C1469.5 35.0001 1571 84.5 1633.5 83C1696 81.5 1692.5 44.5001 1824.5 35.0001Z" fill="#CDE4FF"/>
<path d="M84 360C18 334.8 -30.5 349.5 -46.5 360V498H1105C1056 478.333 948.1 439.8 908.5 443C859 447 805.5 413.5 730 417C654.5 420.5 633 400.5 508 382C383 363.5 392.5 400.5 306 400.5C219.5 400.5 166.5 391.5 84 360Z" fill="#CDE4FF"/>
</g>
</g>
</svg>
